<svg xmlns="http://www.w3.org/2000/svg" width="45.5" height="42" viewBox="0 0 45.5 42">
  <path id="Icon_ionic-ios-trophy" data-name="Icon ionic-ios-trophy" d="M47.344,8.438H40.125V6.25a1.755,1.755,0,0,0-1.75-1.75h-24.5a1.755,1.755,0,0,0-1.75,1.75V8.438H4.906A1.536,1.536,0,0,0,3.375,9.969h0c0,4.517.853,7.219,2.472,9.888A8.906,8.906,0,0,0,12,24.264a.9.9,0,0,1,.678.536c.678,1.684,2.209,3.806,5.589,5.709a21.09,21.09,0,0,0,5.655,2.362.878.878,0,0,1,.678.853v8.837a.878.878,0,0,1-.875.875H16.555a1.568,1.568,0,0,0-1.575,1.455A1.533,1.533,0,0,0,16.511,46.5H35.717a1.568,1.568,0,0,0,1.575-1.455,1.533,1.533,0,0,0-1.531-1.608H28.542a.878.878,0,0,1-.875-.875V33.736a.878.878,0,0,1,.678-.853A21.606,21.606,0,0,0,34,30.52c3.38-1.9,4.911-4.025,5.589-5.709a.876.876,0,0,1,.678-.536,8.906,8.906,0,0,0,6.158-4.408c1.6-2.68,2.45-5.381,2.45-9.9h0A1.536,1.536,0,0,0,47.344,8.438Zm-35.219,12.1a.44.44,0,0,1-.591.416,6.373,6.373,0,0,1-3.347-3.161,11.518,11.518,0,0,1-1.652-5.337.877.877,0,0,1,.875-.952H11.25a.878.878,0,0,1,.875.875Zm31.938-2.745a6.373,6.373,0,0,1-3.347,3.161.44.44,0,0,1-.591-.416V12.375A.878.878,0,0,1,41,11.5h3.839a.877.877,0,0,1,.875.952A11.651,11.651,0,0,1,44.063,17.789Z" transform="translate(-3.375 -4.5)" fill="#ffac4c"/>
</svg>
