<svg xmlns="http://www.w3.org/2000/svg" width="19" height="19" viewBox="0 0 19 19">
  <g id="Group_75" data-name="Group 75" transform="translate(-309 -296)">
    <g id="Ellipse_3" data-name="Ellipse 3" transform="translate(309 296)" fill="#fff" stroke="#707070" stroke-width="1">
      <circle cx="9.5" cy="9.5" r="9.5" stroke="none"/>
      <circle cx="9.5" cy="9.5" r="9" fill="none"/>
    </g>
    <path id="Icon_open-question-mark" data-name="Icon open-question-mark" d="M3.7,0A4.054,4.054,0,0,0,.884.918,2.94,2.94,0,0,0,0,2.7l1.5.181a1.632,1.632,0,0,1,.465-.96A2.329,2.329,0,0,1,3.7,1.391a2.787,2.787,0,0,1,1.829.473,1.125,1.125,0,0,1,.42.918c0,1.155-.51,1.475-1.259,2.087A3.9,3.9,0,0,0,2.953,8v.348h1.5V8c0-1.155.465-1.475,1.214-2.087A3.928,3.928,0,0,0,7.45,2.782,2.579,2.579,0,0,0,6.566.821,4.36,4.36,0,0,0,3.7,0Zm-.75,9.738V11.13h1.5V9.738Z" transform="translate(314.836 299.725)" fill="#707070"/>
  </g>
</svg>
