<svg xmlns="http://www.w3.org/2000/svg" width="42" height="42" viewBox="0 0 42 42">
  <g id="Icon_ionic-ios-rocket" data-name="Icon ionic-ios-rocket" transform="translate(0 0)">
    <path id="Path_29" data-name="Path 29" d="M45.145,3.942a.446.446,0,0,0-.333-.343C39.321,2.255,26.634,7.043,19.76,13.922a29.729,29.729,0,0,0-3.341,3.95,12.422,12.422,0,0,0-6.046.758c-5.1,2.243-6.581,8.1-6.995,10.617A.9.9,0,0,0,4.368,30.3l8.186-.9a18.227,18.227,0,0,0,.111,1.849,1.834,1.834,0,0,0,.535,1.121l3.169,3.172a1.831,1.831,0,0,0,1.12.535,18.147,18.147,0,0,0,1.837.111l-.9,8.182a.9.9,0,0,0,1.05.99c2.513-.4,8.377-1.889,10.608-6.99a12.508,12.508,0,0,0,.767-6.031,29.764,29.764,0,0,0,3.957-3.344C41.713,22.125,46.467,9.71,45.145,3.942ZM28.673,20.095a4.313,4.313,0,1,1,6.1,0A4.313,4.313,0,0,1,28.673,20.095Z" transform="translate(-3.366 -3.372)" fill="#e56515"/>
    <path id="Path_30" data-name="Path 30" d="M14.218,27.779h0a3.469,3.469,0,0,1-1.811.732,2.461,2.461,0,0,1-2.835-2.835,3.4,3.4,0,0,1,.722-1.8l.009-.009a.306.306,0,0,0-.256-.521,4.2,4.2,0,0,0-2.46,1.2c-1.646,1.646-1.8,7.754-1.8,7.754s6.118-.155,7.764-1.8a4.176,4.176,0,0,0,1.2-2.46A.313.313,0,0,0,14.218,27.779Z" transform="translate(-2.638 6.61)" fill="#e56515"/>
  </g>
</svg>
