<svg xmlns="http://www.w3.org/2000/svg" width="17.645" height="21.999" viewBox="0 0 17.645 21.999">
  <path id="Icon_simple-gumtree" data-name="Icon simple-gumtree" d="M18.645,5.977a.609.609,0,0,1-.289-.523,6,6,0,0,0-11.953,0,.611.611,0,0,1-.288.523A6.017,6.017,0,0,0,8.029,16.709a1.641,1.641,0,0,0,1.045.056A2.766,2.766,0,0,0,9.6,14.736a1.975,1.975,0,0,0-.93-.464,3.548,3.548,0,0,1-2.611-3.421,3.491,3.491,0,0,1,.93-2.383,3.262,3.262,0,0,1,.869-.694A2.054,2.054,0,0,0,8.9,5.974a3.338,3.338,0,0,1,.173-1.1,3.542,3.542,0,0,1,6.73,0,3.338,3.338,0,0,1,.173,1.1,1.933,1.933,0,0,0,1.047,1.79,2.437,2.437,0,0,1,.867.689,3.462,3.462,0,0,1,.93,2.382,3.519,3.519,0,0,1-3.538,3.539,4.064,4.064,0,0,0-4.062,4.048v2.313a2.163,2.163,0,0,0,.174,1.047,2.618,2.618,0,0,0,2.088,0,2.013,2.013,0,0,0,.179-1.047V18.367a1.57,1.57,0,0,1,1.57-1.57A5.962,5.962,0,0,0,18.659,5.946l-.014.03Z" transform="translate(-3.563)"/>
</svg>
