<svg xmlns="http://www.w3.org/2000/svg" width="42" height="52.424" viewBox="0 0 42 52.424">
  <path id="Icon_simple-gumtree" data-name="Icon simple-gumtree" d="M39.464,14.242A1.451,1.451,0,0,1,38.777,13a14.284,14.284,0,0,0-28.452,0,1.457,1.457,0,0,1-.685,1.245,14.345,14.345,0,0,0,4.554,25.577,3.9,3.9,0,0,0,2.487.133c.827-.411,1.658-4,1.244-4.834a4.7,4.7,0,0,0-2.212-1.105A8.454,8.454,0,0,1,9.5,25.859a8.324,8.324,0,0,1,2.212-5.68,7.765,7.765,0,0,1,2.068-1.654,4.9,4.9,0,0,0,2.487-4.29,7.962,7.962,0,0,1,.412-2.623,8.427,8.427,0,0,1,16.02,0,7.962,7.962,0,0,1,.412,2.623A4.607,4.607,0,0,0,35.6,18.5a5.8,5.8,0,0,1,2.064,1.643,8.255,8.255,0,0,1,2.212,5.675,8.38,8.38,0,0,1-8.422,8.434A9.678,9.678,0,0,0,21.788,43.9v5.511a5.16,5.16,0,0,0,.415,2.495c.687.69,4.281.69,4.97,0a4.8,4.8,0,0,0,.425-2.495V43.769a3.739,3.739,0,0,1,3.738-3.742A14.212,14.212,0,0,0,39.5,14.17l-.033.072Z" transform="translate(-3.563)" fill="#186a3c"/>
</svg>
