<svg xmlns="http://www.w3.org/2000/svg" width="27.8" height="28.7" viewBox="0 0 27.8 28.7">
  <path id="Icon_material-settings" data-name="Icon material-settings" d="M26.339,17.823a10.626,10.626,0,0,0,.094-1.323,10.626,10.626,0,0,0-.094-1.323l2.82-2.227a.686.686,0,0,0,.16-.864L26.646,7.415a.669.669,0,0,0-.815-.3L22.5,8.468a9.741,9.741,0,0,0-2.259-1.323l-.508-3.578A.654.654,0,0,0,19.082,3H13.736a.654.654,0,0,0-.655.567l-.508,3.578a10.244,10.244,0,0,0-2.259,1.323L6.987,7.118a.649.649,0,0,0-.815.3L3.5,12.086a.67.67,0,0,0,.16.864l2.82,2.227A10.813,10.813,0,0,0,6.385,16.5a10.813,10.813,0,0,0,.094,1.323l-2.82,2.228a.686.686,0,0,0-.16.864l2.673,4.671a.669.669,0,0,0,.815.3l3.328-1.35a9.741,9.741,0,0,0,2.259,1.323l.508,3.577a.654.654,0,0,0,.655.567h5.346a.654.654,0,0,0,.655-.567l.508-3.578A10.244,10.244,0,0,0,22.5,24.533l3.328,1.35a.649.649,0,0,0,.815-.3l2.673-4.671a.686.686,0,0,0-.16-.864l-2.82-2.228Zm-9.93,3.4A4.725,4.725,0,1,1,21.087,16.5,4.707,4.707,0,0,1,16.409,21.225Z" transform="translate(-2.502 -2.15)" fill="#c9ddd3" stroke="#000" stroke-width="1.7"/>
</svg>
