<svg xmlns="http://www.w3.org/2000/svg" xmlns:xlink="http://www.w3.org/1999/xlink" width="207.163" height="154" viewBox="0 0 207.163 154">
  <defs>
    <filter id="Path_36" x="0" y="0" width="207.163" height="154" filterUnits="userSpaceOnUse">
      <feOffset dy="3" input="SourceAlpha"/>
      <feGaussianBlur stdDeviation="3" result="blur"/>
      <feFlood flood-opacity="0.161"/>
      <feComposite operator="in" in2="blur"/>
      <feComposite in="SourceGraphic"/>
    </filter>
  </defs>
  <g transform="matrix(1, 0, 0, 1, 0, 0)" filter="url(#Path_36)">
    <g id="Path_36-2" data-name="Path 36" transform="translate(9 6)" fill="#fff">
      <path d="M 186.8230285644531 134.29931640625 L 107.2779922485352 95.40740203857422 L 107.1740646362305 95.35659790039062 L 107.0583724975586 95.35659790039062 L 5.113780975341797 95.35659790039062 C 2.569733381271362 95.35659790039062 0.4999953508377075 93.24388122558594 0.4999953508377075 90.64700317382812 L 0.4999953508377075 5.209595203399658 C 0.4999953508377075 2.612714290618896 2.569733381271362 0.5 5.113780975341797 0.5 L 150.3452606201172 0.5 C 152.8892974853516 0.5 154.9590454101562 2.612714290618896 154.9590454101562 5.209595203399658 L 154.9590454101562 90.64700317382812 C 154.9590454101562 93.24388122558594 152.8892974853516 95.35659790039062 150.3452606201172 95.35659790039062 L 149.1662292480469 95.35659790039062 L 149.9858245849609 96.20417022705078 L 186.8230285644531 134.29931640625 Z" stroke="none"/>
      <path d="M 5.113784790039062 1 C 2.845428466796875 1 1 2.888397216796875 1 5.2095947265625 L 1 90.64700317382812 C 1 92.96818542480469 2.845428466796875 94.85659790039062 5.113784790039062 94.85659790039062 L 107.0583724975586 94.85659790039062 L 107.2897567749023 94.85659790039062 L 107.4976119995117 94.95821380615234 L 184.4829254150391 132.5986022949219 L 149.6263580322266 96.55174255371094 L 147.9871826171875 94.85659790039062 L 150.3452301025391 94.85659790039062 C 152.6135864257812 94.85659790039062 154.4590454101562 92.96818542480469 154.4590454101562 90.64700317382812 L 154.4590454101562 5.2095947265625 C 154.4590454101562 2.888397216796875 152.6135864257812 1 150.3452301025391 1 L 5.113784790039062 1 M 5.113784790039062 0 L 150.3452301025391 0 C 153.1694946289062 0 155.4590454101562 2.3323974609375 155.4590454101562 5.2095947265625 L 155.4590454101562 90.64700317382812 C 155.4590454101562 93.524169921875 153.1694946289062 95.85659790039062 150.3452301025391 95.85659790039062 L 189.1630859375 136 L 107.0583724975586 95.85659790039062 L 5.113784790039062 95.85659790039062 C 2.289520263671875 95.85659790039062 0 93.524169921875 0 90.64700317382812 L 0 5.2095947265625 C 0 2.3323974609375 2.289520263671875 0 5.113784790039062 0 Z" stroke="none" fill="#707070"/>
    </g>
  </g>
</svg>
