<svg xmlns="http://www.w3.org/2000/svg" xmlns:xlink="http://www.w3.org/1999/xlink" width="232.97" height="268.995" viewBox="0 0 232.97 268.995">
  <defs>
    <filter id="Path_36" x="0" y="0" width="232.97" height="268.995" filterUnits="userSpaceOnUse">
      <feOffset dy="3" input="SourceAlpha"/>
      <feGaussianBlur stdDeviation="3" result="blur"/>
      <feFlood flood-opacity="0.161"/>
      <feComposite operator="in" in2="blur"/>
      <feComposite in="SourceGraphic"/>
    </filter>
  </defs>
  <g transform="matrix(1, 0, 0, 1, 0, 0)" filter="url(#Path_36)">
    <g id="Path_36-2" data-name="Path 36" transform="translate(9 6)" fill="#fff">
      <path d="M 211.2524261474609 249.9440307617188 L 133.6151428222656 238.5459289550781 L 133.5790252685547 238.5406188964844 L 133.5425262451172 238.5406188964844 L 11.51664447784424 238.5406188964844 C 10.72436332702637 238.5406188964844 9.64039421081543 238.1985931396484 8.464426040649414 237.5775604248047 C 7.195175647735596 236.9072723388672 5.922613143920898 235.9729309082031 4.784238338470459 234.8755645751953 C 3.184206962585449 233.3331451416016 0.5000195503234863 230.1354675292969 0.5000195503234863 226.0492401123047 L 0.5000195503234863 12.99133968353271 C 0.5000195503234863 8.781277656555176 2.582113265991211 5.628089904785156 3.823238372802734 4.123214721679688 C 4.733488082885742 3.019496202468872 5.765582084655762 2.093589782714844 6.807894706726074 1.445558547973633 C 7.802832126617432 0.8269648551940918 8.739675521850586 0.4999960958957672 9.517175674438477 0.4999960958957672 L 182.898681640625 0.4999960958957672 C 184.591552734375 0.4999960958957672 187.2536163330078 2.003339767456055 189.3723602294922 4.155839920043945 C 190.8827056884766 5.690277576446533 193.4165191650391 8.878527641296387 193.4165191650391 12.99133968353271 L 193.4165191650391 226.0492401123047 C 193.4165191650391 227.6623077392578 193.0668640136719 229.2164611816406 192.3772735595703 230.6685638427734 C 191.7665252685547 231.9545593261719 190.9085235595703 233.1292114257812 189.8270568847656 234.1598663330078 C 187.6863250732422 236.1999969482422 185.2501068115234 237.1131896972656 183.7853393554688 237.1131896972656 L 183.5881500244141 238.0726470947266 L 211.2524261474609 249.9440307617188 Z" stroke="none"/>
      <path d="M 9.517181396484375 1 C 8.84283447265625 1 7.97442626953125 1.30902099609375 7.071868896484375 1.870147705078125 C 6.075088500976562 2.489898681640625 5.085113525390625 3.378997802734375 4.208953857421875 4.44134521484375 C 3.010513305664062 5.89447021484375 0.9999847412109375 8.937530517578125 0.9999847412109375 12.9913330078125 L 0.9999847412109375 226.0492401123047 C 0.9999847412109375 229.9505615234375 3.588333129882812 233.0282440185547 5.131240844726562 234.5155639648438 C 7.531890869140625 236.8297729492188 10.16064453125 238.0405883789062 11.51661682128906 238.0405883789062 L 133.5425109863281 238.0405883789062 L 133.6155090332031 238.0405883789062 L 133.6877746582031 238.0511779785156 L 207.534912109375 248.8928680419922 L 183.3909912109375 238.5321502685547 L 183.7853393554688 236.6131896972656 C 185.1505126953125 236.6131896972656 187.4414520263672 235.74267578125 189.4821166992188 233.7978973388672 C 190.5191192626953 232.8096160888672 191.3412322998047 231.6845855712891 191.9256134033203 230.4540557861328 C 192.5831451416016 229.0695190429688 192.9165191650391 227.5875244140625 192.9165191650391 226.0492401123047 L 192.9165191650391 12.9913330078125 C 192.9165191650391 9.056716918945312 190.4727325439453 5.986495971679688 189.0159912109375 4.506561279296875 C 186.7500152587891 2.2044677734375 184.223388671875 1 182.898681640625 1 L 9.517181396484375 1 M 9.517181396484375 0 L 182.898681640625 0 C 186.4215545654297 0 193.9165191650391 5.81640625 193.9165191650391 12.9913330078125 L 193.9165191650391 226.0492401123047 C 193.9165191650391 233.2241821289062 187.3082122802734 237.6131896972656 183.7853393554688 237.6131896972656 L 214.9697113037109 250.9951171875 L 133.5425109863281 239.0405883789062 L 11.51661682128906 239.0405883789062 C 7.99371337890625 239.0405883789062 -1.52587890625e-05 233.2241821289062 -1.52587890625e-05 226.0492401123047 L -1.52587890625e-05 12.9913330078125 C -1.52587890625e-05 5.81640625 5.994232177734375 0 9.517181396484375 0 Z" stroke="none" fill="#707070"/>
    </g>
  </g>
</svg>
